HIERARCHY
ROOT Hips
{
	OFFSET 0.000000 0.000000 0.000000
	CHANNELS 6 Xposition Yposition Zposition Xrotation Yrotation Zrotation
	JOINT LeftUpLeg_virtual
	{
		OFFSET 0.000000 0.000000 0.000000
		CHANNELS 3 Xrotation Yrotation Zrotation
		JOINT LeftUpLeg
		{
			OFFSET 10.205400 -3.823500 0.155100
			CHANNELS 3 Xrotation Yrotation Zrotation
			JOINT LeftLeg
			{
				OFFSET 0.708757 -12.982077 0.567790
				CHANNELS 3 Xrotation Yrotation Zrotation
				JOINT LeftFoot
				{
					OFFSET -0.708756 -10.717838 -2.184338
					CHANNELS 3 Xrotation Yrotation Zrotation
					JOINT LeftToeBase
					{
						OFFSET 0.108149 -7.191104 7.560241
						CHANNELS 3 Xrotation Yrotation Zrotation
						JOINT LeftToe_End
						{
							OFFSET 0.070230 0.081724 4.490308
							CHANNELS 3 Xrotation Yrotation Zrotation
							End Site
							{
								OFFSET 0 0 0
							}
						}
					}
				}
			}
		}
	}
	JOINT RightUpLeg_virtual
	{
		OFFSET 0.000000 0.000000 0.000000
		CHANNELS 3 Xrotation Yrotation Zrotation
		JOINT RightUpLeg
		{
			OFFSET -10.205400 -3.823500 0.005500
			CHANNELS 3 Xrotation Yrotation Zrotation
			JOINT RightLeg
			{
				OFFSET -0.708756 -12.982134 0.610632
				CHANNELS 3 Xrotation Yrotation Zrotation
				JOINT RightFoot
				{
					OFFSET 0.708754 -10.717769 -1.945823
					CHANNELS 3 Xrotation Yrotation Zrotation
					JOINT RightToeBase
					{
						OFFSET -0.108140 -7.191069 7.372968
						CHANNELS 3 Xrotation Yrotation Zrotation
						JOINT RightToe_End
						{
							OFFSET -0.070227 0.081735 4.479403
							CHANNELS 3 Xrotation Yrotation Zrotation
							End Site
							{
								OFFSET 0 0 0
							}
						}
					}
				}
			}
		}
	}
	JOINT Spine_virtual
	{
		OFFSET 0.000000 0.000000 0.000000
		CHANNELS 3 Xrotation Yrotation Zrotation
		JOINT Spine
		{
			OFFSET 0.000000 6.876099 0.125700
			CHANNELS 3 Xrotation Yrotation Zrotation
			JOINT Spine1
			{
				OFFSET 0.000000 5.730043 0.104720
				CHANNELS 3 Xrotation Yrotation Zrotation
				JOINT Spine1_split
				{
					OFFSET 0.000000 5.730043 0.104720
					CHANNELS 3 Xrotation Yrotation Zrotation
					JOINT Spine2
					{
						OFFSET 0.000000 5.730043 0.104720
						CHANNELS 3 Xrotation Yrotation Zrotation
						JOINT Neck_virtual
						{
							OFFSET 0.000000 0.000000 0.000000
							CHANNELS 3 Xrotation Yrotation Zrotation
							JOINT Neck
							{
								OFFSET 0.000000 10.314075 0.188496
								CHANNELS 3 Xrotation Yrotation Zrotation
								JOINT Head
								{
									OFFSET 0.000000 7.643700 -2.377400
									CHANNELS 3 Xrotation Yrotation Zrotation
									JOINT HeadTop_End
									{
										OFFSET 0.000000 43.788605 -13.619600
										CHANNELS 3 Xrotation Yrotation Zrotation
										End Site
										{
											OFFSET 0 0 0
										}
									}
								}
							}
						}
						JOINT LeftShoulder_virtual
						{
							OFFSET 0.000000 0.000000 0.000000
							CHANNELS 3 Xrotation Yrotation Zrotation
							JOINT LeftShoulder
							{
								OFFSET 2.196100 4.412489 0.087492
								CHANNELS 3 Xrotation Yrotation Zrotation
								JOINT LeftShoulder_split
								{
									OFFSET 2.196100 4.412489 0.087492
									CHANNELS 3 Xrotation Yrotation Zrotation
									JOINT LeftArm
									{
										OFFSET 8.771219 -2.981674 -0.026999
										CHANNELS 3 Xrotation Yrotation Zrotation
										JOINT LeftForeArm
										{
											OFFSET 8.512804 0.000000 -0.000000
											CHANNELS 3 Xrotation Yrotation Zrotation
											JOINT LeftHand
											{
												OFFSET 18.484802 0.000000 -0.000000
												CHANNELS 3 Xrotation Yrotation Zrotation
												End Site
												{
													OFFSET 0 0 0
												}
											}
										}
									}
								}
							}
						}
						JOINT RightShoulder_virtual
						{
							OFFSET 0.000000 0.000000 0.000000
							CHANNELS 3 Xrotation Yrotation Zrotation
							JOINT RightShoulder
							{
								OFFSET -2.196100 4.412496 0.070690
								CHANNELS 3 Xrotation Yrotation Zrotation
								JOINT RightShoulder_split
								{
									OFFSET -2.196100 4.412496 0.070690
									CHANNELS 3 Xrotation Yrotation Zrotation
									JOINT RightArm
									{
										OFFSET -8.771282 -2.981682 -0.094208
										CHANNELS 3 Xrotation Yrotation Zrotation
										JOINT RightForeArm
										{
											OFFSET -8.494598 0.000000 0.000000
											CHANNELS 3 Xrotation Yrotation Zrotation
											JOINT RightHand
											{
												OFFSET -18.483803 0.000000 0.000001
												CHANNELS 3 Xrotation Yrotation Zrotation
												End Site
												{
													OFFSET 0 0 0
												}
											}
										}
									}
								}
							}
						}
					}
				}
			}
		}
	}
}
MOTION
Frames: 10
Frame Time: 0.03333333
3.275832 31.462368 -7.435683 0.000000 0.000000 0.000000 11.325105 8.540703 -0.843169 3.487809 15.020412 10.972506 36.898424 -1.985854 2.372943 -13.552373 3.254621 -14.313760 -37.092527 0.000048 0.000014 0.000000 0.000000 0.000000 11.325105 8.540703 -0.843169 -52.431281 -4.940167 -8.877799 50.880429 -1.592997 3.639516 -6.630416 2.311164 -1.185514 -2.728540 -0.002730 0.346933 0.000000 0.000000 0.000000 11.325105 8.540703 -0.843169 4.655639 -1.420742 0.177886 0.605665 -2.990263 3.348215 0.000000 0.000000 0.000000 0.000000 0.000000 0.000000 0.632964 -3.010483 3.359029 -3.128715 0.442728 3.393671 -11.101222 2.725893 2.316673 0.000000 0.000000 0.000000 0.632964 -3.010483 3.359029 0.028840 0.485794 0.321411 0.000000 0.000000 0.000000 -37.094655 -12.101456 -49.437182 179.999991 -66.162622 179.999991 0.000000 0.000000 0.000000 0.632964 -3.010483 3.359029 -0.713610 -10.227973 7.452281 0.000000 0.000000 0.000000 -37.185292 7.525125 49.482255 179.999964 57.602715 -179.999991 0.000000 0.000000 0.000000 
3.260170 32.334187 -8.149270 0.000000 0.000000 0.000000 14.008306 9.172978 -1.387318 -13.014626 13.952062 12.214444 47.848023 -5.317743 -0.139785 6.070807 -1.943509 -3.154863 -51.637412 4.276977 -6.011702 0.000000 0.000000 0.000000 14.008306 9.172978 -1.387318 -51.484118 -4.847015 -7.434959 53.021041 -2.100345 3.193348 -5.737443 2.155204 -1.276580 -9.022904 -0.025920 0.460396 0.000000 0.000000 0.000000 14.008306 9.172978 -1.387318 3.829846 -0.816084 0.888399 3.030175 -2.333154 2.316412 0.000000 0.000000 0.000000 0.000000 0.000000 0.000000 3.025689 -2.337049 2.305680 -3.373871 0.744375 1.970034 -20.406063 -0.736912 4.010723 0.000000 0.000000 0.000000 3.025689 -2.337049 2.305680 0.226634 -3.126610 5.972552 0.000000 0.000000 0.000000 -55.645520 -11.976972 -43.754506 179.999978 -69.485242 179.999991 0.000000 0.000000 0.000000 3.025689 -2.337049 2.305680 -1.787739 -12.486580 1.915340 0.000000 0.000000 0.000000 -57.494128 10.708990 49.479939 179.999978 64.133489 -179.999978 0.000000 0.000000 0.000000 
3.202414 32.797607 -8.872464 0.000000 0.000000 0.000000 15.062416 8.641282 -1.173728 -28.064575 11.295227 14.940308 73.756658 -4.915951 -0.772774 2.013214 -2.172251 3.824014 -2.729525 0.895603 -7.790310 0.000000 0.000000 0.000000 15.062416 8.641282 -1.173728 -46.807816 -4.415003 -5.598948 57.965828 -3.734686 2.515098 -10.769998 1.752930 -1.937838 -16.446271 0.000109 0.000015 0.000000 0.000000 0.000000 15.062416 8.641282 -1.173728 4.244186 -0.557735 0.928898 5.525782 -2.007906 1.460071 0.000000 0.000000 0.000000 0.000000 0.000000 0.000000 5.509996 -2.001089 1.443114 -3.821972 1.179405 0.529719 -28.309548 -3.166418 6.680834 0.000000 0.000000 0.000000 5.509996 -2.001089 1.443114 0.256384 -4.260465 17.532839 0.000000 0.000000 0.000000 -70.525084 -4.093751 -37.545089 179.999964 -75.168657 179.999964 0.000000 0.000000 0.000000 5.509996 -2.001089 1.443114 -4.311121 -16.380950 -8.167935 0.000000 0.000000 0.000000 -75.846669 5.206710 53.753517 179.999964 75.375632 179.999978 0.000000 0.000000 0.000000 
2.990414 33.234455 -9.487554 0.000000 0.000000 0.000000 12.530643 8.586784 0.824482 -35.253226 9.889930 15.417084 93.062256 0.506203 0.842456 -3.575181 -1.031258 7.933627 4.144455 0.000001 -0.000000 0.000000 0.000000 0.000000 12.530643 8.586784 0.824482 -38.098454 -4.511720 -5.710820 54.939586 -4.586677 1.788074 -17.703464 1.927562 -2.989822 -17.468369 0.000118 0.000018 0.000000 0.000000 0.000000 12.530643 8.586784 0.824482 11.178434 -1.156134 -0.980226 4.641891 -2.434681 1.215398 0.000000 0.000000 0.000000 0.000000 0.000000 0.000000 4.643794 -2.376271 1.240035 -4.441271 1.638402 -0.538824 -29.274385 -4.578420 11.198305 0.000000 0.000000 0.000000 4.643794 -2.376271 1.240035 -0.549386 -2.146087 27.837039 0.000000 0.000000 0.000000 -72.667141 1.178755 -29.946688 179.999991 -82.576010 -179.999991 0.000000 0.000000 0.000000 4.643794 -2.376271 1.240035 -8.667470 -18.781794 -25.118352 0.000000 0.000000 0.000000 -79.985784 -4.358377 54.700506 -179.999950 84.691825 179.999868 0.000000 0.000000 0.000000 
2.798232 33.501671 -9.663110 0.000000 0.000000 0.000000 10.824452 9.092668 3.561714 -40.204549 10.505886 14.342938 99.611008 5.485891 1.844084 -4.327785 -1.491726 10.556038 4.338951 -0.000011 0.000010 0.000000 0.000000 0.000000 10.824452 9.092668 3.561714 -33.457770 -5.521767 -7.139741 50.981932 -4.968277 1.032509 -23.756996 3.138592 -5.511978 -7.860978 0.000050 0.000004 0.000000 0.000000 0.000000 10.824452 9.092668 3.561714 16.245438 -2.289450 -5.249161 2.584048 -2.735307 1.265201 0.000000 0.000000 0.000000 0.000000 0.000000 0.000000 2.641299 -2.664699 1.362577 -5.197558 1.888819 -0.140763 -27.560426 -3.071811 13.080479 0.000000 0.000000 0.000000 2.641299 -2.664699 1.362577 -0.696176 -2.093743 30.730783 0.000000 0.000000 0.000000 -66.963291 1.059132 -26.541967 -179.999937 -85.929749 -179.999978 0.000000 0.000000 0.000000 2.641299 -2.664699 1.362577 -9.480944 -17.572706 -29.617831 0.000000 0.000000 0.000000 -74.873230 -4.107919 50.276172 -179.999964 89.507027 179.999609 0.000000 0.000000 0.000000 
2.761614 33.717346 -9.150117 0.000000 0.000000 0.000000 13.641648 7.245961 4.286123 -46.082139 12.496309 14.912497 93.651913 3.840131 0.694046 -4.020359 -1.667511 11.552604 3.880863 -0.000010 0.000008 0.000000 0.000000 0.000000 13.641648 7.245961 4.286123 -35.353462 -5.393193 -7.633600 49.158934 -5.673959 1.391020 -23.203479 2.959521 -5.168099 -7.422903 0.000047 0.000004 0.000000 0.000000 0.000000 13.641648 7.245961 4.286123 13.971191 -2.005998 -8.428892 1.769757 -2.049462 0.919861 0.000000 0.000000 0.000000 0.000000 0.000000 0.000000 1.808715 -2.056910 0.974190 -5.247914 1.570777 1.033119 -28.020653 -2.495917 13.072224 0.000000 0.000000 0.000000 1.808715 -2.056910 0.974190 0.436184 -5.182424 24.206867 0.000000 0.000000 0.000000 -59.301266 -0.248130 -25.445844 179.999991 -81.803386 179.999950 0.000000 0.000000 0.000000 1.808715 -2.056910 0.974190 -6.512462 -13.611464 -20.925598 0.000000 0.000000 0.000000 -64.068868 0.388895 44.479496 179.999937 84.679729 179.999991 0.000000 0.000000 0.000000 
2.833195 34.094055 -8.310210 0.000000 0.000000 0.000000 17.030390 2.279202 2.930004 -50.700781 13.981519 17.581747 79.752752 -1.259577 -1.876130 -4.449476 -3.506379 10.239995 2.904333 -0.000007 -0.000003 0.000000 0.000000 0.000000 17.030390 2.279202 2.930004 -35.005095 -7.071106 -7.198547 42.627808 -3.618137 4.647179 -15.479095 2.014163 -2.786108 -11.679551 0.000071 0.000007 0.000000 0.000000 0.000000 17.030390 2.279202 2.930004 10.594119 -0.454007 -10.220374 2.082290 -0.951033 1.865385 0.000000 0.000000 0.000000 0.000000 0.000000 0.000000 2.049099 -0.920626 1.869607 -6.893896 1.854047 1.035713 -27.981999 -0.640690 12.618144 0.000000 0.000000 0.000000 2.049099 -0.920626 1.869607 0.229145 -3.347760 10.040487 0.000000 0.000000 0.000000 -48.911599 -2.302254 -28.636000 -179.999991 -74.658325 -179.999991 0.000000 0.000000 0.000000 2.049099 -0.920626 1.869607 -3.572931 -8.597349 -12.730135 0.000000 0.000000 0.000000 -50.834957 -1.445637 43.140957 179.999950 75.849906 -179.999991 0.000000 0.000000 0.000000 
3.059103 34.106510 -7.654630 0.000000 0.000000 0.000000 18.411991 -1.829372 -0.364302 -57.646209 12.783544 19.490338 65.573805 -9.133417 -3.858515 0.361945 -5.555577 9.865902 -2.650398 0.474641 -5.523688 0.000000 0.000000 0.000000 18.411991 -1.829372 -0.364302 -27.866398 -8.313636 -1.995839 35.377081 -1.712445 5.935573 -11.733178 2.620618 -4.746507 -12.768239 -0.085273 0.895795 0.000000 0.000000 0.000000 18.411991 -1.829372 -0.364302 8.013381 0.860627 -9.222847 3.054365 -0.292415 3.242827 0.000000 0.000000 0.000000 0.000000 0.000000 0.000000 2.968203 -0.193060 3.250013 -9.671877 2.412707 0.842909 -25.796480 2.024527 12.784512 0.000000 0.000000 0.000000 2.968203 -0.193060 3.250013 0.172031 2.174558 -0.736131 0.000000 0.000000 0.000000 -34.652159 -1.097478 -37.897810 -179.999978 -70.575860 180.000005 0.000000 0.000000 0.000000 2.968203 -0.193060 3.250013 -1.171141 -4.644296 -2.396867 0.000000 0.000000 0.000000 -38.878188 -4.234488 43.396341 179.999950 72.502950 -179.999978 0.000000 0.000000 0.000000 
3.258233 33.012875 -7.266431 0.000000 0.000000 0.000000 19.402995 -2.159382 -3.693359 -64.600721 9.881667 17.287680 56.800468 -7.779287 -2.970124 8.171433 -13.229994 8.682675 -20.693390 -0.004388 0.018446 0.000000 0.000000 0.000000 19.402995 -2.159382 -3.693359 -15.717256 -5.374859 4.740576 32.708646 -6.369439 4.173415 -21.342371 3.691310 -8.015933 -12.169486 -0.077522 2.328890 0.000000 0.000000 0.000000 19.402995 -2.159382 -3.693359 3.346389 1.079071 -5.771487 4.145133 -0.479512 3.019602 0.000000 0.000000 0.000000 0.000000 0.000000 0.000000 4.090379 -0.421675 3.056989 -10.674302 2.075772 1.810187 -23.031326 3.137907 12.488158 0.000000 0.000000 0.000000 4.090379 -0.421675 3.056989 1.299669 8.313717 -18.538235 0.000000 0.000000 0.000000 -23.414935 -4.076961 -36.861896 179.999978 -71.409860 179.999978 0.000000 0.000000 0.000000 4.090379 -0.421675 3.056989 0.800822 -5.189605 15.888342 0.000000 0.000000 0.000000 -28.930755 -3.465997 38.330007 -179.999991 73.383457 179.999978 0.000000 0.000000 0.000000 
3.075054 31.361984 -7.470122 0.000000 0.000000 0.000000 19.383003 0.305403 -4.668757 -65.949663 9.334149 10.455224 62.332006 -7.470774 2.698282 -10.260927 -10.473608 8.194366 -10.616865 0.000017 0.000003 0.000000 0.000000 0.000000 19.383003 0.305403 -4.668757 -1.803439 -3.588517 6.527006 27.174541 -10.652582 3.253596 -31.332680 1.146032 -5.306552 -14.045147 0.000097 0.000013 0.000000 0.000000 0.000000 19.383003 0.305403 -4.668757 -1.616128 0.673785 -3.904064 4.595000 -0.930338 1.691648 0.000000 0.000000 0.000000 0.000000 0.000000 0.000000 4.571621 -0.884402 1.723338 -9.204895 0.930521 3.251488 -19.301466 1.901562 11.037766 0.000000 0.000000 0.000000 4.571621 -0.884402 1.723338 2.250735 14.730187 -25.211435 0.000000 0.000000 0.000000 -12.683125 -3.096779 -42.117330 179.999991 -72.495116 179.999978 0.000000 0.000000 0.000000 4.571621 -0.884402 1.723338 1.689546 -11.673683 23.414744 0.000000 0.000000 0.000000 -15.200207 -7.772729 45.249710 179.999978 73.441151 179.999978 0.000000 0.000000 0.000000 
